HIERARCHY
ROOT Hips
{
  OFFSET -362.814 93.0393 1738.72
  CHANNELS 6 Xposition Yposition Zposition Zrotation Xrotation Yrotation
  JOINT Spine
  {
    OFFSET 0 8 6.73467e-05
    CHANNELS 6 Xposition Yposition Zposition Zrotation Xrotation Yrotation
    JOINT Spine1
    {
      OFFSET 0.000147153 8.00001 0.000345565
      CHANNELS 6 Xposition Yposition Zposition Zrotation Xrotation Yrotation
      JOINT Spine2
      {
        OFFSET -0.000542038 8 -0.000822548
        CHANNELS 6 Xposition Yposition Zposition Zrotation Xrotation Yrotation
        JOINT Spine3
        {
          OFFSET 0 8 0
          CHANNELS 6 Xposition Yposition Zposition Zrotation Xrotation Yrotation
          JOINT Neck
          {
            OFFSET 3.96854e-05 17 -3.66187e-05
            CHANNELS 6 Xposition Yposition Zposition Zrotation Xrotation Yrotation
            JOINT Head
            {
              OFFSET -5.22843e-05 10.8 9.20251e-05
              CHANNELS 6 Xposition Yposition Zposition Zrotation Xrotation Yrotation
              End Site
              {
                OFFSET 0 20.25 0
              }
            }
          }
          JOINT LeftShoulder
          {
            OFFSET 5.00005 17 -3.51723e-05
            CHANNELS 6 Xposition Yposition Zposition Zrotation Xrotation Yrotation
            JOINT LeftShoulder2
            {
              OFFSET 6.45 0 0
              CHANNELS 6 Xposition Yposition Zposition Zrotation Xrotation Yrotation
              JOINT LeftArm
              {
                OFFSET 6.44994 0 4.75562e-05
                CHANNELS 6 Xposition Yposition Zposition Zrotation Xrotation Yrotation
                JOINT LeftForeArm
                {
                  OFFSET -0.000731322 -32.3971 -1.99618
                  CHANNELS 6 Xposition Yposition Zposition Zrotation Xrotation Yrotation
                  JOINT LeftHand
                  {
                    OFFSET -0.000861557 -25.6501 1.99913
                    CHANNELS 6 Xposition Yposition Zposition Zrotation Xrotation Yrotation
                    JOINT LeftHandThumb1
                    {
                      OFFSET -0.500225 -1.49756 2.65127
                      CHANNELS 6 Xposition Yposition Zposition Zrotation Xrotation Yrotation
                      JOINT LeftHandThumb2
                      {
                        OFFSET -0.00019419 -3.80046 3.7001
                        CHANNELS 6 Xposition Yposition Zposition Zrotation Xrotation Yrotation
                        JOINT LeftHandThumb3
                        {
                          OFFSET 0.00024854 -3.00011 2.69843
                          CHANNELS 6 Xposition Yposition Zposition Zrotation Xrotation Yrotation
                          End Site
                          {
                            OFFSET 0.00176744 -2.29997 1.79504
                          }
                        }
                      }
                    }
                    JOINT LeftHandIndex
                    {
                      OFFSET -0.00560949 -1.90538 1.60749
                      CHANNELS 6 Xposition Yposition Zposition Zrotation Xrotation Yrotation
                      JOINT LeftHandIndex1
                      {
                        OFFSET -0.00499326 -8.30631 1.90715
                        CHANNELS 6 Xposition Yposition Zposition Zrotation Xrotation Yrotation
                        JOINT LeftHandIndex2
                        {
                          OFFSET -0.00713386 -4.5082 0.0180338
                          CHANNELS 6 Xposition Yposition Zposition Zrotation Xrotation Yrotation
                          JOINT LeftHandIndex3
                          {
                            OFFSET 0.000190189 -3.39916 0.00052728
                            CHANNELS 6 Xposition Yposition Zposition Zrotation Xrotation Yrotation
                            End Site
                            {
                              OFFSET -0.00104729 -2.59969 -0.00212249
                            }
                          }
                        }
                      }
                    }
                    JOINT LeftHandMiddle
                    {
                      OFFSET -0.2503 -2.19804 0.400699
                      CHANNELS 6 Xposition Yposition Zposition Zrotation Xrotation Yrotation
                      JOINT LeftHandMiddle1
                      {
                        OFFSET -0.0105747 -8.30985 1.01625
                        CHANNELS 6 Xposition Yposition Zposition Zrotation Xrotation Yrotation
                        JOINT LeftHandMiddle2
                        {
                          OFFSET -0.000439461 -4.64945 5.30226e-05
                          CHANNELS 6 Xposition Yposition Zposition Zrotation Xrotation Yrotation
                          JOINT LeftHandMiddle3
                          {
                            OFFSET 0.00189265 -3.30021 -0.000463732
                            CHANNELS 6 Xposition Yposition Zposition Zrotation Xrotation Yrotation
                            End Site
                            {
                              OFFSET 0.00281557 -2.70222 -0.000248424
                            }
                          }
                        }
                      }
                    }
                    JOINT LeftHandRing
                    {
                      OFFSET -0.501466 -2.1506 -0.797768
                      CHANNELS 6 Xposition Yposition Zposition Zrotation Xrotation Yrotation
                      JOINT LeftHandRing1
                      {
                        OFFSET 0.00126235 -7.74587 -0.198773
                        CHANNELS 6 Xposition Yposition Zposition Zrotation Xrotation Yrotation
                        JOINT LeftHandRing2
                        {
                          OFFSET -5.16088e-05 -3.80003 -0.000128898
                          CHANNELS 6 Xposition Yposition Zposition Zrotation Xrotation Yrotation
                          JOINT LeftHandRing3
                          {
                            OFFSET 6.8028e-05 -3.40007 5.19465e-05
                            CHANNELS 6 Xposition Yposition Zposition Zrotation Xrotation Yrotation
                            End Site
                            {
                              OFFSET 0.00140067 -2.60244 0.000231635
                            }
                          }
                        }
                      }
                    }
                    JOINT LeftHandPinky
                    {
                      OFFSET -0.736907 -1.74135 -1.87058
                      CHANNELS 6 Xposition Yposition Zposition Zrotation Xrotation Yrotation
                      JOINT LeftHandPinky1
                      {
                        OFFSET 0.0137538 -7.14241 -1.02239
                        CHANNELS 6 Xposition Yposition Zposition Zrotation Xrotation Yrotation
                        JOINT LeftHandPinky2
                        {
                          OFFSET 0.000948293 -3.00391 -0.00214432
                          CHANNELS 6 Xposition Yposition Zposition Zrotation Xrotation Yrotation
                          JOINT LeftHandPinky3
                          {
                            OFFSET 0.000561107 -2.35005 -0.000189579
                            CHANNELS 6 Xposition Yposition Zposition Zrotation Xrotation Yrotation
                            End Site
                            {
                              OFFSET -9.38946e-05 -2.09991 0
                            }
                          }
                        }
                      }
                    }
                  }
                }
              }
            }
          }
          JOINT RightShoulder
          {
            OFFSET -4.99997 17 -3.80651e-05
            CHANNELS 6 Xposition Yposition Zposition Zrotation Xrotation Yrotation
            JOINT RightShoulder2
            {
              OFFSET -6.45 0 0
              CHANNELS 6 Xposition Yposition Zposition Zrotation Xrotation Yrotation
              JOINT RightArm
              {
                OFFSET -6.44999 0 1.1093e-05
                CHANNELS 6 Xposition Yposition Zposition Zrotation Xrotation Yrotation
                JOINT RightForeArm
                {
                  OFFSET 0.00127763 -32.4002 -1.99961
                  CHANNELS 6 Xposition Yposition Zposition Zrotation Xrotation Yrotation
                  JOINT RightHand
                  {
                    OFFSET -0.00101286 -25.6506 2.0005
                    CHANNELS 6 Xposition Yposition Zposition Zrotation Xrotation Yrotation
                    JOINT RightHandThumb1
                    {
                      OFFSET 0.499423 -1.49969 2.64981
                      CHANNELS 6 Xposition Yposition Zposition Zrotation Xrotation Yrotation
                      JOINT RightHandThumb2
                      {
                        OFFSET -0.018575 -3.82264 3.71626
                        CHANNELS 6 Xposition Yposition Zposition Zrotation Xrotation Yrotation
                        JOINT RightHandThumb3
                        {
                          OFFSET 0.00153401 -2.9999 2.69767
                          CHANNELS 6 Xposition Yposition Zposition Zrotation Xrotation Yrotation
                          End Site
                          {
                            OFFSET 0.0018516 -2.29852 1.79682
                          }
                        }
                      }
                    }
                    JOINT RightHandIndex
                    {
                      OFFSET 2.97717e-05 -1.89981 1.6001
                      CHANNELS 6 Xposition Yposition Zposition Zrotation Xrotation Yrotation
                      JOINT RightHandIndex1
                      {
                        OFFSET -0.00332259 -8.298 1.90469
                        CHANNELS 6 Xposition Yposition Zposition Zrotation Xrotation Yrotation
                        JOINT RightHandIndex2
                        {
                          OFFSET -1.98966e-05 -4.5 -0.000137693
                          CHANNELS 6 Xposition Yposition Zposition Zrotation Xrotation Yrotation
                          JOINT RightHandIndex3
                          {
                            OFFSET 0.000489419 -3.40003 -0.000554147
                            CHANNELS 6 Xposition Yposition Zposition Zrotation Xrotation Yrotation
                            End Site
                            {
                              OFFSET 0.000287063 -2.60043 0.000380447
                            }
                          }
                        }
                      }
                    }
                    JOINT RightHandMiddle
                    {
                      OFFSET 0.246886 -2.20247 0.400221
                      CHANNELS 6 Xposition Yposition Zposition Zrotation Xrotation Yrotation
                      JOINT RightHandMiddle1
                      {
                        OFFSET 0.00116673 -8.30693 1.00346
                        CHANNELS 6 Xposition Yposition Zposition Zrotation Xrotation Yrotation
                        JOINT RightHandMiddle2
                        {
                          OFFSET -0.00741818 -4.65352 0.00207653
                          CHANNELS 6 Xposition Yposition Zposition Zrotation Xrotation Yrotation
                          JOINT RightHandMiddle3
                          {
                            OFFSET 0.00300295 -3.29833 -0.00291212
                            CHANNELS 6 Xposition Yposition Zposition Zrotation Xrotation Yrotation
                            End Site
                            {
                              OFFSET -8.32816e-05 -2.69991 -7.35403e-05
                            }
                          }
                        }
                      }
                    }
                    JOINT RightHandRing
                    {
                      OFFSET 0.500087 -2.15282 -0.801445
                      CHANNELS 6 Xposition Yposition Zposition Zrotation Xrotation Yrotation
                      JOINT RightHandRing1
                      {
                        OFFSET 0.000445051 -7.74886 -0.199375
                        CHANNELS 6 Xposition Yposition Zposition Zrotation Xrotation Yrotation
                        JOINT RightHandRing2
                        {
                          OFFSET -0.000137609 -3.79991 -8.40199e-05
                          CHANNELS 6 Xposition Yposition Zposition Zrotation Xrotation Yrotation
                          JOINT RightHandRing3
                          {
                            OFFSET -0.00100488 -3.39727 0.000889122
                            CHANNELS 6 Xposition Yposition Zposition Zrotation Xrotation Yrotation
                            End Site
                            {
                              OFFSET -0.00312588 -2.59916 0.00279039
                            }
                          }
                        }
                      }
                    }
                    JOINT RightHandPinky
                    {
                      OFFSET 0.750087 -1.75046 -1.84939
                      CHANNELS 6 Xposition Yposition Zposition Zrotation Xrotation Yrotation
                      JOINT RightHandPinky1
                      {
                        OFFSET 0.000702993 -7.14906 -1.00008
                        CHANNELS 6 Xposition Yposition Zposition Zrotation Xrotation Yrotation
                        JOINT RightHandPinky2
                        {
                          OFFSET 0.000304731 -2.99974 0.000242172
                          CHANNELS 6 Xposition Yposition Zposition Zrotation Xrotation Yrotation
                          JOINT RightHandPinky3
                          {
                            OFFSET -0.00177991 -2.34686 0.00136907
                            CHANNELS 6 Xposition Yposition Zposition Zrotation Xrotation Yrotation
                            End Site
                            {
                              OFFSET -0.00152038 -2.10258 -0.000815352
                            }
                          }
                        }
                      }
                    }
                  }
                }
              }
            }
          }
        }
      }
    }
  }
  JOINT LeftUpLeg
  {
    OFFSET 7.99998 0 4.56984e-05
    CHANNELS 6 Xposition Yposition Zposition Zrotation Xrotation Yrotation
    JOINT LeftLeg
    {
      OFFSET -0.000469671 -45.0002 -0.999253
      CHANNELS 6 Xposition Yposition Zposition Zrotation Xrotation Yrotation
      JOINT LeftFoot
      {
        OFFSET 0.000224799 -41 -2.0001
        CHANNELS 6 Xposition Yposition Zposition Zrotation Xrotation Yrotation
        JOINT LeftToeBase
        {
          OFFSET -0.000752158 -7.49995 12.4995
          CHANNELS 6 Xposition Yposition Zposition Zrotation Xrotation Yrotation
          JOINT LeftFootToe
          {
            OFFSET 0 0 4
            CHANNELS 6 Xposition Yposition Zposition Zrotation Xrotation Yrotation
            End Site
            {
              OFFSET 0 0 0
            }
          }
        }
      }
    }
  }
  JOINT RightUpLeg
  {
    OFFSET -7.99998 0 -4.56984e-05
    CHANNELS 6 Xposition Yposition Zposition Zrotation Xrotation Yrotation
    JOINT RightLeg
    {
      OFFSET -0.00224131 -44.9926 -0.999403
      CHANNELS 6 Xposition Yposition Zposition Zrotation Xrotation Yrotation
      JOINT RightFoot
      {
        OFFSET -0.00106476 -41.0005 -2.00056
        CHANNELS 6 Xposition Yposition Zposition Zrotation Xrotation Yrotation
        JOINT RightToeBase
        {
          OFFSET -0.000154363 -7.50007 12.5001
          CHANNELS 6 Xposition Yposition Zposition Zrotation Xrotation Yrotation
          JOINT RightFootToe
          {
            OFFSET 0 0 4
            CHANNELS 6 Xposition Yposition Zposition Zrotation Xrotation Yrotation
            End Site
            {
              OFFSET 0 0 0
            }
          }
        }
      }
    }
  }
}
MOTION
Frames:	3
Frame Time:	0.0111111
-334.958 81.8007 1740.17 6.07772 3.6022 -122.906 0 8 2.27374e-13 -1.37477 20.1483 17.2155 -2.27374e-13 8 -1.42109e-13 -1.37166 8.48443 4.2639 -2.27374e-13 8 1.13687e-13 -0.605319 4.26611 2.10429 0 8 8.52651e-14 -0.603222 4.24656 2.09679 2.27374e-13 17 -1.13687e-13 -0.991787 -4.07878 9.34948 2.27374e-13 10.8 0 -1.27585 -9.76902 21.9671 5 17 5.68434e-14 -3.11572 -3.5651 12.9335 6.45 -2.84217e-14 -5.68434e-14 -1.85683 -2.03974 -2.59068 6.45 -8.52651e-14 -1.13687e-13 168.582 -78.8498 142.719 0 -32.4 -2 -4.44489 0.194151 9.91186 0 -25.65 2 0.236337 9.18042 27.8463 -0.5 -1.5 2.65 -15.1761 -20.098 13.6168 0 -3.8 3.7 4.15337 8.42776 2.84946 2.27374e-13 -3 2.7 0.00861262 51.5946 -0.00236523 2.27374e-13 -1.9 1.6 -2.16362e-06 3.93376e-06 -2.51949e-06 0 -8.3 1.9 -14.1011 -26.1407 -3.03121 2.27374e-13 -4.5 0 -0.0672356 0.336394 -0.438872 0 -3.4 5.68434e-14 0.00371333 0.331318 -0.423331 -0.25 -2.2 0.4 -2.16362e-06 3.93376e-06 -2.51949e-06 0 -8.3 1 -9.84274 -15.4281 -1.10167 -2.27374e-13 -4.65 5.68434e-14 -37.3903 0.002717 -0.0886509 2.27374e-13 -3.3 2.27374e-13 14.2061 0.0301084 -0.021118 -0.5 -2.15 -0.8 -2.16362e-06 3.93376e-06 -2.51949e-06 0 -7.75 -0.2 -5.38882 1.53091 0.463339 0 -3.8 0 -0.289083 0.00943479 -0.0435679 0 -3.4 -3.41061e-13 -26.0035 0.006348 0.0141064 -0.75 -1.75 -1.85 -2.16362e-06 3.93376e-06 -2.51949e-06 -4.54747e-13 -7.15 -1 -3.16128 15.0004 0.874845 -2.27374e-13 -3 0 -0.0952419 0.108002 -0.00171789 0 -2.35 0 -4.77654e-05 0.00185635 -0.00544978 -5 17 -2.84217e-14 1.13932 -5.32644 5.48679 -6.45 -2.84217e-14 -1.7053e-13 -0.735259 1.09916 -4.2372 -6.45 2.84217e-14 -5.68434e-14 8.72296 -82.837 53.011 -2.27374e-13 -32.4 -2 35.8869 -50.6834 33.0208 0 -25.65 2 -60.0496 1.25808 47.2509 0.5 -1.5 2.65 126.219 53.1059 57.6088 -2.27374e-13 -3.8 3.7 -27.1143 44.5187 4.49986 -2.27374e-13 -3 2.7 0.0388041 12.5863 -0.0730852 0 -1.9 1.6 -1.36983e-06 5.38403e-06 -5.21239e-06 2.27374e-13 -8.3 1.9 0.63329 -6.16635 0.0549261 -1.13687e-13 -4.5 2.27374e-13 0.000650629 -0.0298144 0.211809 4.54747e-13 -3.4 0 0.000186038 -0.0332979 0.468447 0.25 -2.2 0.4 -1.36983e-06 5.38403e-06 -5.21239e-06 0 -8.3 1 3.31423 5.08545 -0.389818 0 -4.65 0 41.4727 56.5776 21.1423 2.84217e-14 -3.3 2.27374e-13 65.058 0.0458033 0.0333031 0.5 -2.15 -0.8 -1.36983e-06 5.38403e-06 -5.21239e-06 1.13687e-13 -7.75 -0.2 16.1106 11.9189 -2.53348 2.27374e-13 -3.8 -2.27374e-13 20.3622 41.5596 19.9827 5.68434e-14 -3.4 0 52.0757 0.00107882 -0.0060737 0.75 -1.75 -1.85 -1.36983e-06 5.38403e-06 -5.21239e-06 1.13687e-13 -7.15 -1 5.84608 18.5065 -1.76058 0 -3 -2.27374e-13 23.7924 53.5595 29.8928 0 -2.35 2.27374e-13 65.0097 0.0935002 0.0087875 8 0 2.27374e-13 46.6372 -40.4742 29.9587 2.27374e-13 -45 -1 -25.8041 19.2573 6.93064 0 -41 -2 5.21716 18.7273 -18.0072 -4.54747e-13 -7.5 12.5 0.164224 -0.144429 0.000669516 2.27374e-13 0 4 13.8517 -5.30016 -0.0857369 -8 0 0 25.4824 5.24679 -14.9957 0 -45 -1 -51.246 17.6277 17.9569 0 -41 -2 35.8413 -32.7144 8.68191 0 -7.5 12.5 -1.00339e-05 -0.0443049 2.38302e-05 0 0 4 -26.3056 -9.10488 73.6196 
-334.959 81.802 1740.17 6.07665 3.59906 -122.888 0 8 0 -1.35203 20.1522 17.2207 0 8 -1.42109e-13 -1.36401 8.48149 4.26914 2.27374e-13 8 1.13687e-13 -0.602193 4.26583 2.10712 0 8 1.13687e-13 -0.599684 4.24611 2.09959 -2.27374e-13 17 -5.68434e-14 -0.996315 -4.08883 9.33687 0 10.8 0 -1.29125 -9.79383 21.9363 5 17 0 -3.11784 -3.54753 12.9637 6.45 0 0 -1.85652 -2.0346 -2.59017 6.45 -8.52651e-14 -1.13687e-13 168.965 -78.8199 143.206 0 -32.4 -2 -4.54582 0.0149048 10.1151 0 -25.65 2 0.384171 9.70808 27.887 -0.5 -1.5 2.65 -15.1743 -20.0775 13.2379 -2.27374e-13 -3.8 3.7 4.39683 9.01372 2.96412 0 -3 2.7 0.00626772 52.5258 -0.00296378 2.27374e-13 -1.9 1.6 -2.16362e-06 3.93376e-06 -2.51949e-06 -2.27374e-13 -8.3 1.9 -14.1063 -26.149 -3.03348 2.27374e-13 -4.5 0 -0.0672308 0.336512 -0.438934 0 -3.4 0 0.00372025 0.331435 -0.423421 -0.25 -2.2 0.4 -2.16362e-06 3.93376e-06 -2.51949e-06 4.54747e-13 -8.3 1 -9.84379 -15.4884 -1.10911 0 -4.65 1.7053e-13 -37.3903 0.0028952 -0.0903882 0 -3.3 2.27374e-13 14.214 0.029674 -0.021155 -0.5 -2.15 -0.8 -2.16362e-06 3.93376e-06 -2.51949e-06 -2.27374e-13 -7.75 -0.2 -5.32972 1.45188 0.449673 2.27374e-13 -3.8 0 -0.289109 0.00946869 -0.043782 0 -3.4 -2.27374e-13 -26.0035 0.00650326 0.0143787 -0.75 -1.75 -1.85 -2.16362e-06 3.93376e-06 -2.51949e-06 -2.27374e-13 -7.15 -1 -3.07527 14.8078 0.845873 -2.27374e-13 -3 -1.13687e-13 -0.0952418 0.111168 -0.00181782 -2.27374e-13 -2.35 1.13687e-13 -4.77015e-05 0.00188153 -0.00557113 -5 17 -8.52651e-14 1.1247 -5.34752 5.52379 -6.45 -5.68434e-14 -1.7053e-13 -0.735107 1.09932 -4.2375 -6.45 0 -1.42109e-13 8.51497 -82.6422 52.6523 -4.54747e-13 -32.4 -2 35.6817 -50.3439 31.8 1.13687e-13 -25.65 2 -59.4299 1.45947 45.5075 0.5 -1.5 2.65 127.822 55.1419 53.9039 -2.27374e-13 -3.8 3.7 -28.134 45.4081 4.95726 0 -3 2.7 0.0138175 12.852 -0.120663 1.13687e-13 -1.9 1.6 -1.36983e-06 5.38403e-06 -5.21239e-06 1.13687e-13 -8.3 1.9 0.538959 -5.42712 0.0623069 0 -4.5 0 0.000697923 -0.0295542 0.211798 4.54747e-13 -3.4 2.27374e-13 0.000180102 -0.0325052 0.469408 0.25 -2.2 0.4 -1.36983e-06 5.38403e-06 -5.21239e-06 -1.13687e-13 -8.3 1 3.37686 4.97684 -0.382178 1.13687e-13 -4.65 0 40.1355 57.702 22.8567 0 -3.3 -2.27374e-13 66.2675 0.0649686 0.0543355 0.5 -2.15 -0.8 -1.36983e-06 5.38403e-06 -5.21239e-06 1.13687e-13 -7.75 -0.2 14.874 11.8148 -2.36716 1.13687e-13 -3.8 2.27374e-13 20.6703 41.2161 19.4139 1.13687e-13 -3.4 0 51.4769 -0.0109658 -0.0182719 0.75 -1.75 -1.85 -1.36983e-06 5.38403e-06 -5.21239e-06 0 -7.15 -1 5.39764 17.4364 -1.58721 0 -3 0 22.6417 54.1144 31.3794 -5.68434e-14 -2.35 0 66.2133 0.130578 0.0094546 8 0 -1.13687e-13 46.6197 -40.4785 29.9544 -2.27374e-13 -45 -1 -25.8004 19.2412 6.92574 0 -41 -2 5.22173 18.7298 -18.02 -2.27374e-13 -7.5 12.5 0.164257 -0.144469 0.000669516 0 0 4 13.8436 -5.302 -0.0858123 -8 0 -1.13687e-13 25.4876 5.25055 -14.9922 2.27374e-13 -45 -1 -51.2402 17.6247 17.9582 0 -41 -2 35.8242 -32.7192 8.65059 0 -7.5 12.5 -1.00338e-05 -0.0445107 2.38302e-05 2.27374e-13 -2.84217e-14 4 -26.3105 -9.10329 73.6188 
-334.961 81.8034 1740.16 6.0755 3.59591 -122.87 0 8 0 -1.32827 20.1564 17.2266 -2.27374e-13 8 -1.98952e-13 -1.35569 8.47841 4.27426 2.27374e-13 8 1.13687e-13 -0.598126 4.26556 2.10989 0 8 1.13687e-13 -0.595685 4.24574 2.10243 0 17 -5.68434e-14 -1.00083 -4.1004 9.32358 2.27374e-13 10.8 0 -1.30823 -9.82234 21.9035 5 17 5.68434e-14 -3.1202 -3.52891 12.9953 6.45 5.68434e-14 -5.68434e-14 -1.85629 -2.02882 -2.58982 6.45 -5.68434e-14 -1.13687e-13 169.275 -78.792 143.612 0 -32.4 -2 -4.66718 -0.208056 10.3157 0 -25.65 2 0.528913 10.2959 27.9369 -0.5 -1.5 2.65 -15.1642 -20.0369 12.892 -2.27374e-13 -3.8 3.7 4.64867 9.6133 3.07672 0 -3 2.7 0.00630091 53.2882 -0.00351172 4.54747e-13 -1.9 1.6 -2.16362e-06 3.93376e-06 -2.51949e-06 0 -8.3 1.9 -14.1083 -26.1568 -3.03509 0 -4.5 0 -0.0672261 0.336626 -0.438988 -2.27374e-13 -3.4 0 0.00372709 0.331547 -0.423505 -0.25 -2.2 0.4 -2.16362e-06 3.93376e-06 -2.51949e-06 0 -8.3 1 -9.84215 -15.5556 -1.11699 0 -4.65 1.13687e-13 -37.3903 0.00307801 -0.0921062 0 -3.3 2.27374e-13 14.2108 0.0291219 -0.0211555 -0.5 -2.15 -0.8 -2.16362e-06 3.93376e-06 -2.51949e-06 2.27374e-13 -7.75 -0.2 -5.26755 1.35772 0.435135 0 -3.8 1.13687e-13 -0.289133 0.00948455 -0.0439484 2.27374e-13 -3.4 -2.27374e-13 -26.0035 0.00663885 0.0146202 -0.75 -1.75 -1.85 -2.16362e-06 3.93376e-06 -2.51949e-06 -2.27374e-13 -7.15 -1 -2.98325 14.5991 0.81528 0 -3 0 -0.0952416 0.11429 -0.00194176 2.27374e-13 -2.35 0 -4.76947e-05 0.00190538 -0.00568832 -5 17 -2.84217e-14 1.10697 -5.3679 5.56266 -6.45 -2.84217e-14 -1.7053e-13 -0.73496 1.09948 -4.23776 -6.45 5.68434e-14 -2.84217e-14 8.33922 -82.4282 52.3078 0 -32.4 -2 35.5152 -49.9456 30.4964 0 -25.65 2 -58.7477 1.64693 43.5804 0.5 -1.5 2.65 127.302 57.8994 53.2086 -2.27374e-13 -3.8 3.7 -27.3755 44.8013 4.60278 2.27374e-13 -3 2.7 0.0327029 12.6661 -0.0845639 0 -1.9 1.6 -1.36983e-06 5.38403e-06 -5.21239e-06 1.13687e-13 -8.3 1.9 0.456516 -4.6376 0.0730541 0 -4.5 2.27374e-13 0.000745447 -0.029296 0.211786 4.54747e-13 -3.4 -2.27374e-13 0.000174135 -0.0317121 0.470366 0.25 -2.2 0.4 -1.36983e-06 5.38403e-06 -5.21239e-06 -1.13687e-13 -8.3 1 3.41915 4.95621 -0.371082 -1.13687e-13 -4.65 0 38.7686 58.6912 24.5535 -5.68434e-14 -3.3 2.27374e-13 67.4218 0.096232 0.0849958 0.5 -2.15 -0.8 -1.36983e-06 5.38403e-06 -5.21239e-06 0 -7.75 -0.2 13.8821 11.5062 -2.19316 2.27374e-13 -3.8 2.27374e-13 21.007 40.8378 18.7866 5.68434e-14 -3.4 0 50.8343 -0.0310468 -0.0425606 0.75 -1.75 -1.85 -1.36983e-06 5.38403e-06 -5.21239e-06 0 -7.15 -1 4.92812 16.2135 -1.40743 1.13687e-13 -3 2.27374e-13 21.3206 54.6925 33.0607 5.68434e-14 -2.35 2.27374e-13 67.5474 0.168816 0.010064 8 0 0 46.6025 -40.4833 29.9501 0 -45 -1 -25.7965 19.2235 6.92076 2.27374e-13 -41 -2 5.22363 18.7398 -18.03 -2.27374e-13 -7.5 12.5 0.164289 -0.144508 0.000669516 0 -1.42109e-14 4 13.8425 -5.30462 -0.0858897 -8 -2.84217e-14 -1.13687e-13 25.4919 5.25439 -14.9881 0 -45 -1 -51.2334 17.6214 17.9595 0 -41 -2 35.8066 -32.7244 8.61745 0 -7.5 12.5 -1.00337e-05 -0.0447164 2.38302e-05 0 0 4 -26.314 -9.10234 73.6183 
